<?xml version="1.0" standalone="no"?>
<!DOCTYPE svg PUBLIC "-//W3C//DTD SVG 20010904//EN"
 "http://www.w3.org/TR/2001/REC-SVG-20010904/DTD/svg10.dtd">
<svg version="1.0" xmlns="http://www.w3.org/2000/svg"
 width="57.000000pt" height="48.000000pt" viewBox="0 0 347.000000 238.000000"
 preserveAspectRatio="xMidYMid meet">

<g transform="translate(0.000000,238.000000) scale(0.100000,-0.100000)"
fill="#000000" stroke="none">
<path d="M0 1190 l0 -1190 1735 0 1735 0 0 1190 0 1190 -1735 0 -1735 0 0
-1190z m1120 190 l0 -50 -165 0 -165 0 0 50 0 50 165 0 165 0 0 -50z m485 22
c192 -98 200 -394 13 -497 -46 -26 -63 -30 -133 -30 -69 0 -87 4 -127 28 -60
35 -101 85 -122 149 -47 146 19 307 147 358 66 26 163 23 222 -8z m555 3 c48
-29 73 -75 73 -138 1 -62 -23 -112 -64 -135 -16 -10 -29 -20 -29 -25 0 -4 23
-57 50 -117 28 -60 50 -112 50 -115 0 -3 -24 -5 -54 -5 l-54 0 -34 73 c-65
143 -71 152 -100 155 l-28 3 0 -115 0 -116 -55 0 -55 0 0 165 0 165 113 0
c127 0 157 11 157 58 0 58 -32 72 -164 72 l-106 0 0 51 0 51 133 -4 c111 -2
138 -6 167 -23z m686 0 c6 -24 7 -24 35 -9 36 18 49 12 49 -26 0 -41 -45 -92
-75 -84 -20 5 -24 0 -40 -50 -18 -56 -38 -85 -49 -68 -3 4 8 46 24 93 17 46
30 103 30 127 0 46 16 57 26 17z m-248 -62 c75 -193 163 -420 172 -441 6 -13
10 -25 10 -27 0 -3 -24 -5 -54 -5 l-53 0 -54 150 c-29 83 -56 150 -60 150 -3
0 -30 -67 -59 -150 l-52 -150 -55 0 c-48 0 -54 2 -48 18 4 9 25 64 47 122 105
275 160 410 168 410 5 0 22 -35 38 -77z m460 27 c9 -55 -49 -121 -88 -100 -11
6 -20 19 -20 30 0 23 41 53 62 45 16 -6 32 20 22 36 -8 13 -38 11 -52 -3 -9
-9 -12 -9 -12 -1 0 7 10 19 22 27 19 13 25 14 43 2 11 -7 21 -23 23 -36z
m-292 -20 c-15 -51 -43 -71 -33 -24 10 52 27 88 37 78 6 -6 4 -26 -4 -54z
m439 41 c8 -26 -18 -85 -46 -105 -70 -49 -101 27 -39 94 33 35 75 40 85 11z
m-472 -147 c3 -4 2 -16 -4 -26 -13 -24 -35 -9 -26 16 7 17 19 21 30 10z
m-2102 -100 c-17 -43 -29 -79 -28 -81 2 -1 20 9 40 24 31 22 39 24 53 12 10
-8 14 -23 12 -41 -3 -18 1 -29 11 -33 13 -5 13 -8 2 -15 -24 -14 -40 0 -43 38
l-3 37 -48 -44 c-29 -27 -51 -41 -57 -35 -5 5 2 43 20 94 45 135 50 144 61
133 7 -7 1 -35 -20 -89z m379 -94 l0 -180 -55 0 -55 0 0 173 c0 96 3 177 7
180 3 4 28 7 55 7 l48 0 0 -180z m-530 81 c0 -14 8 -21 28 -23 60 -7 30 -82
-43 -105 -25 -8 -32 -18 -44 -61 -14 -51 -31 -70 -31 -33 0 19 40 163 59 214
12 31 31 36 31 8z m374 -7 c22 -8 20 -52 -4 -91 -30 -50 -100 -59 -100 -13 0
29 26 76 52 94 25 18 30 19 52 10z m346 -9 c28 -34 -32 -128 -79 -123 -19 2
-27 10 -29 26 -10 70 71 142 108 97z"/>
<path d="M1412 1314 c-118 -60 -117 -271 2 -328 83 -39 172 -9 214 74 41 82
18 194 -50 244 -37 27 -123 32 -166 10z m113 -134 c24 -27 13 -68 -22 -76 -34
-9 -57 6 -61 40 -6 53 47 76 83 36z"/>
<path d="M2860 1355 c-19 -20 -21 -28 -11 -38 10 -9 17 -6 37 16 13 15 24 32
24 38 0 17 -26 9 -50 -16z"/>
<path d="M2980 1305 c-10 -12 -10 -15 3 -15 8 0 20 7 27 15 10 12 10 15 -3 15
-8 0 -20 -7 -27 -15z"/>
<path d="M3154 1382 c-16 -11 -44 -55 -44 -69 0 -25 30 -13 50 20 28 46 25 71
-6 49z"/>
<path d="M470 1070 c-34 -34 -22 -52 21 -30 20 11 27 50 9 50 -5 0 -19 -9 -30
-20z"/>
<path d="M801 1074 c-21 -27 -28 -64 -13 -64 14 0 49 43 55 68 7 31 -16 29
-42 -4z"/>
<path d="M1131 1066 c-25 -39 -27 -56 -7 -56 17 0 56 51 56 74 0 27 -27 18
-49 -18z"/>
</g>
</svg>
